HIERARCHY
ROOT hip
{
  OFFSET 0 0 0
  CHANNELS 6 Xposition Yposition Zposition Zrotation Yrotation Xrotation
  JOINT abdomen
  {
    OFFSET 0 20.6881 -0.73152
    CHANNELS 3 Zrotation Xrotation Yrotation
    JOINT chest
    {
      OFFSET 0 11.7043 -0.48768
      CHANNELS 3 Zrotation Xrotation Yrotation
      JOINT neck
      {
        OFFSET 0 22.1894 -2.19456
        CHANNELS 3 Zrotation Xrotation Yrotation
        JOINT head
        {
          OFFSET -0.24384 7.07133 1.2192
          CHANNELS 3 Zrotation Xrotation Yrotation
          JOINT leftEye
          {
            OFFSET 4.14528 8.04674 8.04672
            CHANNELS 3 Zrotation Xrotation Yrotation
            End Site
            {
              OFFSET 1 0 0
            }
          }
          JOINT rightEye
          {
            OFFSET -3.6576 8.04674 8.04672
            CHANNELS 3 Zrotation Xrotation Yrotation
            End Site
            {
              OFFSET 1 0 0
            }
          }
        }
      }
      JOINT rCollar
      {
        OFFSET -2.68224 19.2634 -4.8768
        CHANNELS 3 Zrotation Xrotation Yrotation
        JOINT rShldr
        {
          OFFSET -8.77824 -1.95073 1.46304
          CHANNELS 3 Zrotation Xrotation Yrotation
          JOINT rForeArm
          {
            OFFSET -28.1742 -1.7115 0.48768
            CHANNELS 3 Zrotation Xrotation Yrotation
            JOINT rHand
            {
              OFFSET -22.5879 0.773209 7.07136
              CHANNELS 3 Zrotation Xrotation Yrotation
              JOINT rThumb1
              {
                OFFSET -1.2192 -0.487915 3.41376
                CHANNELS 3 Zrotation Xrotation Yrotation
                JOINT rThumb2
                {
                  OFFSET -3.37035 -0.52449 3.41376
                  CHANNELS 3 Zrotation Xrotation Yrotation
                  End Site
                  {
                    OFFSET -1.78271 -1.18214 1.43049
                  }
                }
              }
              JOINT rIndex1
              {
                OFFSET -7.75947 0.938293 5.60832
                CHANNELS 3 Zrotation Xrotation Yrotation
                JOINT rIndex2
                {
                  OFFSET -2.54057 -0.884171 1.56538
                  CHANNELS 3 Zrotation Xrotation Yrotation
                  End Site
                  {
                    OFFSET -1.62519 -0.234802 1.16502
                  }
                }
              }
              JOINT rMid1
              {
                OFFSET -8.24714 1.18213 3.41376
                CHANNELS 3 Zrotation Xrotation Yrotation
                JOINT rMid2
                {
                  OFFSET -3.10165 -0.590103 1.0647
                  CHANNELS 3 Zrotation Xrotation Yrotation
                  End Site
                  {
                    OFFSET -2.48547 -0.328903 0.83742
                  }
                }
              }
              JOINT rRing1
              {
                OFFSET -8.82822 0.546677 1.51678
                CHANNELS 3 Zrotation Xrotation Yrotation
                JOINT rRing2
                {
                  OFFSET -2.60934 -0.819778 -0.0198488
                  CHANNELS 3 Zrotation Xrotation Yrotation
                  End Site
                  {
                    OFFSET -2.33842 -0.294052 0.168128
                  }
                }
              }
              JOINT rPinky1
              {
                OFFSET -8.27202 -0.0477905 -0.4584
                CHANNELS 3 Zrotation Xrotation Yrotation
                JOINT rPinky2
                {
                  OFFSET -1.82734 -0.647385 -0.700984
                  CHANNELS 3 Zrotation Xrotation Yrotation
                  End Site
                  {
                    OFFSET -1.69225 -0.51767 -0.607171
                  }
                }
              }
            }
          }
        }
      }
      JOINT lCollar
      {
        OFFSET 2.68224 19.2634 -4.8768
        CHANNELS 3 Zrotation Xrotation Yrotation
        JOINT lShldr
        {
          OFFSET 8.77824 -1.95073 1.46304
          CHANNELS 3 Zrotation Xrotation Yrotation
          JOINT lForeArm
          {
            OFFSET 28.1742 -1.7115 0.48768
            CHANNELS 3 Zrotation Xrotation Yrotation
            JOINT lHand
            {
              OFFSET 22.5879 0.773209 7.07136
              CHANNELS 3 Zrotation Xrotation Yrotation
              JOINT lThumb1
              {
                OFFSET 1.2192 -0.487915 3.41376
                CHANNELS 3 Zrotation Xrotation Yrotation
                JOINT lThumb2
                {
                  OFFSET 3.37035 -0.52449 3.41376
                  CHANNELS 3 Zrotation Xrotation Yrotation
                  End Site
                  {
                    OFFSET 1.78271 -1.18214 1.43049
                  }
                }
              }
              JOINT lIndex1
              {
                OFFSET 7.75947 0.938293 5.60832
                CHANNELS 3 Zrotation Xrotation Yrotation
                JOINT lIndex2
                {
                  OFFSET 2.54057 -0.884171 1.56538
                  CHANNELS 3 Zrotation Xrotation Yrotation
                  End Site
                  {
                    OFFSET 1.62519 -0.234802 1.16502
                  }
                }
              }
              JOINT lMid1
              {
                OFFSET 8.24714 1.18213 3.41376
                CHANNELS 3 Zrotation Xrotation Yrotation
                JOINT lMid2
                {
                  OFFSET 3.10165 -0.590103 1.0647
                  CHANNELS 3 Zrotation Xrotation Yrotation
                  End Site
                  {
                    OFFSET 2.48547 -0.328903 0.83742
                  }
                }
              }
              JOINT lRing1
              {
                OFFSET 8.82822 0.546677 1.51678
                CHANNELS 3 Zrotation Xrotation Yrotation
                JOINT lRing2
                {
                  OFFSET 2.60934 -0.819778 -0.0198488
                  CHANNELS 3 Zrotation Xrotation Yrotation
                  End Site
                  {
                    OFFSET 2.33842 -0.294052 0.168128
                  }
                }
              }
              JOINT lPinky1
              {
                OFFSET 8.27202 -0.0477905 -0.4584
                CHANNELS 3 Zrotation Xrotation Yrotation
                JOINT lPinky2
                {
                  OFFSET 1.82734 -0.647385 -0.700984
                  CHANNELS 3 Zrotation Xrotation Yrotation
                  End Site
                  {
                    OFFSET 1.69225 -0.51767 -0.607171
                  }
                }
              }
            }
          }
        }
      }
    }
  }
  JOINT rButtock
  {
    OFFSET -8.77824 4.35084 1.2192
    CHANNELS 3 Zrotation Xrotation Yrotation
    JOINT rThigh
    {
      OFFSET 0 -1.70687 -2.19456
      CHANNELS 3 Zrotation Xrotation Yrotation
      JOINT rShin
      {
        OFFSET 0 -36.8199 0.73152
        CHANNELS 3 Zrotation Xrotation Yrotation
        JOINT rFoot
        {
          OFFSET 0.73152 -45.1104 -5.12064
          CHANNELS 3 Zrotation Xrotation Yrotation
          End Site
          {
            OFFSET -1.1221 -3.69964 12.103
          }
        }
      }
    }
  }
  JOINT lButtock
  {
    OFFSET 8.77824 4.35084 1.2192
    CHANNELS 3 Zrotation Xrotation Yrotation
    JOINT lThigh
    {
      OFFSET 0 -1.70687 -2.19456
      CHANNELS 3 Zrotation Xrotation Yrotation
      JOINT lShin
      {
        OFFSET 0 -36.8199 0.73152
        CHANNELS 3 Zrotation Xrotation Yrotation
        JOINT lFoot
        {
          OFFSET -0.73152 -45.1104 -5.12064
          CHANNELS 3 Zrotation Xrotation Yrotation
          End Site
          {
            OFFSET 1.1221 -3.69964 12.103
          }
        }
      }
    }
  }
}
MOTION
Frames:	4
Frame Time:	0.00833333
286.353 85.7429 0.836251 716.121 147.338 715.665 -5.71322 10.1602 7.50871 -2.10748 2.74988 2.22455 15.7877 20.3244 17.389 -23.9475 -23.2789 30.9206 -0.0 0.0 0.0 -0.0 0.0 0.0 1.08378e-13 3.80647e-14 -2.54789e-13 84.6529 29.3674 -5.23482 -16.6955 -9.34959 31.1558 -0.464365 -19.0031 -2.77422 -7.81696e-10 -2.59805e-10 7.24785e-11 -1.34808e-09 -4.5621e-10 1.14217e-10 -7.81691e-10 -2.59808e-10 7.24701e-11 7.73091 5.47488 0.417314 -7.81696e-10 -2.59804e-10 7.24781e-11 2.90554 0.965183 0.102902 -7.8169e-10 -2.59805e-10 7.24804e-11 10.2786 0.731801 0.0259123 -7.81702e-10 -2.59803e-10 7.24892e-11 2.22167 -0.733487 -0.20892 1.08376e-13 3.80702e-14 -2.55019e-13 -74.314 40.2826 -3.47667 16.4404 -9.10242 -30.6088 0.0146357 -3.41856 0.481031 -5.25934e-10 -3.75212e-10 -4.53392e-10 -9.0953e-10 -6.48107e-10 -7.83762e-10 -5.25945e-10 -3.75208e-10 -4.53385e-10 -7.73091 5.47488 -0.417314 -5.25938e-10 -3.75212e-10 -4.53398e-10 -2.90554 0.965183 -0.102902 -5.25941e-10 -3.7521e-10 -4.53391e-10 -10.2786 0.731801 -0.0259123 -5.25928e-10 -3.75209e-10 -4.53398e-10 -2.22167 -0.733487 0.20892 -2.03217e-16 0.0 -3.88251e-19 -4.57606 -17.7297 -9.76661 -0.444301 47.5124 1.40107 -17.9205 -22.8126 -33.0774 2.03217e-16 0.0 3.88251e-19 -10.6146 -10.3195 -10.2274 0.11043 28.5087 -0.569013 8.75778 -16.8693 22.3665
286.055 85.742 0.454084 716.518 149.105 715.377 -6.13115 10.6597 7.38318 -2.11991 2.67087 2.1768 15.634 20.3586 17.4165 -24.188 -23.5973 30.9156 -0.0 0.0 0.0 -0.0 0.0 0.0 1.51886e-13 1.04594e-13 -2.77731e-13 84.4486 29.215 -4.90316 -16.7107 -9.3645 31.188 -0.457842 -18.8748 -2.75405 -9.93045e-10 -3.21234e-10 -1.06472e-10 -1.71003e-09 -5.66089e-10 -1.98426e-10 -9.93044e-10 -3.21237e-10 -1.06477e-10 7.73091 5.47488 0.417314 -9.93046e-10 -3.21234e-10 -1.06474e-10 2.90554 0.965183 0.102902 -9.93039e-10 -3.21233e-10 -1.06471e-10 10.2786 0.731801 0.0259123 -9.93049e-10 -3.2123e-10 -1.06462e-10 2.22167 -0.733487 -0.20892 1.5184e-13 1.04602e-13 -2.78006e-13 -74.4277 40.3581 -3.28376 16.5996 -9.256 -30.9497 0.01634 -3.63771 0.511943 -8.19477e-10 -5.35328e-10 -3.94475e-10 -1.41678e-09 -9.23993e-10 -6.81635e-10 -8.19486e-10 -5.35321e-10 -3.94463e-10 -7.73091 5.47488 -0.417314 -8.19485e-10 -5.35327e-10 -3.94482e-10 -2.90554 0.965183 -0.102902 -8.19488e-10 -5.35323e-10 -3.94472e-10 -10.2786 0.731801 -0.0259123 -8.19475e-10 -5.35321e-10 -3.94477e-10 -2.22167 -0.733487 0.20892 -2.03217e-16 0.0 -3.88251e-19 -5.66947 -19.1194 -10.0392 -0.548125 50.5707 1.43254 -15.4913 -19.9657 -31.2723 2.03217e-16 0.0 3.88251e-19 -10.9023 -9.65859 -10.7394 0.0958007 27.6081 -0.518258 7.95244 -16.0203 21.299
285.725 85.765 0.0959052 715.779 150.96 714.844 -6.49676 11.1241 7.30214 -2.14445 2.58113 2.14365 15.4676 20.3421 17.4133 -24.2321 -23.8167 30.8827 -0.0 0.0 0.0 -0.0 0.0 0.0 1.47137e-13 1.09725e-13 -2.28801e-13 84.331 29.0692 -4.65839 -16.7323 -9.38573 31.2342 -0.455081 -18.82 -2.74544 -8.74432e-10 -3.11317e-10 -1.73913e-11 -1.50649e-09 -5.46779e-10 -4.25797e-11 -8.74432e-10 -3.11321e-10 -1.73945e-11 7.73091 5.47488 0.417314 -8.74432e-10 -3.11318e-10 -1.73945e-11 2.90554 0.965183 0.102902 -8.74426e-10 -3.11317e-10 -1.73913e-11 10.2786 0.731801 0.0259123 -8.74434e-10 -3.11313e-10 -1.73817e-11 2.22167 -0.733487 -0.20892 1.47074e-13 1.09734e-13 -2.29099e-13 -74.4081 40.4747 -3.20138 16.6517 -9.30706 -31.0608 0.0171749 -3.7388 0.526209 -8.1753e-10 -4.20682e-10 -2.64667e-10 -1.41392e-09 -7.25526e-10 -4.56903e-10 -8.17536e-10 -4.20673e-10 -2.64651e-10 -7.73091 5.47488 -0.417314 -8.17538e-10 -4.2068e-10 -2.64673e-10 -2.90554 0.965183 -0.102902 -8.17542e-10 -4.20676e-10 -2.64662e-10 -10.2786 0.731801 -0.0259123 -8.17529e-10 -4.20674e-10 -2.64667e-10 -2.22167 -0.733487 0.20892 -2.03217e-16 0.0 -3.88251e-19 -6.48393 -20.2972 -10.0547 -0.644588 53.1163 1.46866 -13.5191 -17.7007 -29.5458 2.03217e-16 0.0 3.88251e-19 -11.1277 -9.00349 -11.3138 0.0819155 26.7887 -0.476347 7.28242 -15.4018 20.254
285.012 85.782 -0.39286 711.927 153.508 713.494 -6.70364 11.5823 7.29737 -2.21122 2.46772 2.13521 15.2647 20.2541 17.3812 -23.9958 -23.8819 30.8415 -0.0 0.0 0.0 -0.0 0.0 0.0 5.79723e-14 8.0485e-15 -4.50403e-14 84.3132 28.9104 -4.51663 -16.7581 -9.41094 31.2901 -0.457882 -18.8757 -2.75418 -1.45924e-10 -1.68723e-10 5.75222e-10 -2.57783e-10 -2.87128e-10 9.93285e-10 -1.45924e-10 -1.68727e-10 5.75218e-10 7.73091 5.47488 0.417314 -1.45924e-10 -1.68724e-10 5.75221e-10 2.90554 0.965183 0.102902 -1.45919e-10 -1.68723e-10 5.75222e-10 10.2786 0.731801 0.0259123 -1.45926e-10 -1.68719e-10 5.75234e-10 2.22167 -0.733487 -0.20892 5.79393e-14 8.05339e-15 -4.53264e-14 -74.2045 40.7032 -3.28576 16.5623 -9.22094 -30.8675 0.0165787 -3.674 0.517062 -2.90367e-10 2.16031e-10 2.27385e-11 -5.04452e-10 3.74418e-10 4.04477e-11 -2.90373e-10 2.16041e-10 2.27551e-11 -7.73091 5.47488 -0.417314 -2.90373e-10 2.16033e-10 2.27331e-11 -2.90554 0.965183 -0.102902 -2.90379e-10 2.16038e-10 2.27435e-11 -10.2786 0.731801 -0.0259123 -2.90367e-10 2.16038e-10 2.2738e-11 -2.22167 -0.733487 0.20892 -2.03217e-16 0.0 -3.88251e-19 -6.86621 -21.2119 -9.76944 -0.735232 55.1102 1.51137 -11.977 -16.2256 -27.7358 2.03217e-16 0.0 3.88251e-19 -11.2093 -8.30943 -11.975 0.0666353 26.0422 -0.443898 6.7671 -15.1054 19.239
